<svg width="512" height="512" viewBox="0 0 512 512" fill="none" xmlns="http://www.w3.org/2000/svg">
  <defs>
    <linearGradient id="t" x1="276" y1="30" x2="143" y2="430" gradientUnits="userSpaceOnUse">
      <stop offset="0%" stop-color="#18F0D2"/>
      <stop offset="50%" stop-color="#38C8F0"/>
      <stop offset="100%" stop-color="#68B4FF"/>
    </linearGradient>
    <linearGradient id="p" x1="61" y1="460" x2="235" y2="214" gradientUnits="userSpaceOnUse">
      <stop offset="0%" stop-color="#CCA8FF"/>
      <stop offset="100%" stop-color="#A07AF8"/>
    </linearGradient>
    <radialGradient id="o" cx="36%" cy="28%" r="62%">
      <stop offset="0%" stop-color="#FFC07A"/>
      <stop offset="100%" stop-color="#FF5822"/>
    </radialGradient>
  </defs>
  <rect width="512" height="512" rx="112" fill="#0c0e14"/>
  <g transform="translate(106 106) scale(3)">
    <path d="M40 88 C40 50 52 22 65 16 C78 22 90 50 90 88 L76 88 C76 56 70 32 65 32 C60 32 54 56 54 88Z" fill="#1B2898"/>
    <path d="M14 88 C12 72 16 54 28 42 C34 36 42 34 46 40 C44 52 40 66 38 76 C36 82 28 88 20 88Z" fill="url(#p)"/>
    <path d="M52 6 C62 14 66 32 62 50 C60 62 54 74 44 80 C36 84 28 80 22 72 C18 64 18 50 22 38 C28 24 38 8 52 6Z" fill="url(#t)"/>
    <circle cx="78" cy="15" r="12" fill="url(#o)"/>
  </g>
</svg>
